<svg width="64" height="64" viewBox="0 0 64 64" fill="none" xmlns="http://www.w3.org/2000/svg">
<path d="M35.001 6.27979C35.7698 6.19735 36.6608 6.35763 37.4014 6.56787C39.0767 7.04338 40.4372 8.06152 41.2451 9.51514C42.0846 11.0052 42.246 12.7472 41.6924 14.3491C40.9893 16.3247 39.4819 17.3179 37.5986 18.231L37.6201 23.9927C38.9659 24.375 40.2751 24.8083 41.4971 25.4683C44.3057 26.9852 46.2268 29.5431 47.0322 32.4536C47.8836 35.5058 47.399 38.7488 45.6855 41.4692C44.1141 43.9348 41.609 45.7559 38.6094 46.4536C34.6905 47.366 31.3663 46.3781 27.998 44.5122C26.5093 45.9954 25.0386 47.4954 23.5869 49.0112C24.236 50.4378 24.4509 51.9348 24.0205 53.4507C23.5998 54.9326 22.4851 56.2019 21.0596 56.9526C19.4621 57.7951 17.642 57.949 15.8906 57.4819C14.1525 57.0185 12.6923 56.0148 11.8428 54.5073C11.0067 53.0252 10.9355 51.2888 11.4775 49.7065C12.0942 47.9082 13.3502 46.7999 15.1162 45.978C17.017 45.2853 18.5889 45.5135 20.4443 46.1362C21.989 44.6217 23.4433 43.031 25.0039 41.5298C23.2885 38.3955 22.7332 35.7257 23.625 32.272C21.683 31.4273 19.8103 30.4433 17.8672 29.5972C16.8289 30.6043 15.5598 31.2952 14.0693 31.5288C12.292 31.8076 10.418 31.3556 8.95703 30.3833C7.50956 29.4062 6.5571 27.9172 6.32324 26.2661C6.08322 24.665 6.53623 22.9008 7.63672 21.6372C8.77153 20.334 10.5322 19.5471 12.3105 19.3735C14.058 19.2149 15.8018 19.7116 17.1553 20.7534C18.8857 22.1039 19.3849 23.7829 19.5947 25.7837C21.4365 26.8358 23.5457 27.647 25.4648 28.5864C27.9617 25.8361 29.7864 24.9687 33.4258 23.9233L33.4287 18.2046C32.7772 17.9616 32.1263 17.6667 31.5586 17.2778C30.1227 16.2882 29.18 14.797 28.9473 13.147C28.7321 11.5057 29.2296 9.85211 30.3291 8.5542C31.531 7.14944 33.1374 6.50962 35.001 6.27979ZM43.0244 34.7241C42.6542 30.7904 38.9453 27.873 34.7217 28.1929C30.4599 28.5158 27.2944 32.0098 27.668 35.978C28.0415 39.9476 31.8112 42.8744 36.0684 42.5015C40.2874 42.1309 43.3946 38.6574 43.0244 34.7241Z" fill="white"/>
<path d="M55.2346 25.1709C55.4148 25.1625 55.5897 25.1601 55.7689 25.1843C56.3292 25.2599 56.8812 25.5121 57.1898 25.9703C57.5171 26.4566 57.5619 27.1041 57.6068 27.6674C57.8289 30.4551 57.6639 33.3552 57.6631 36.1529C57.6625 38.4376 57.9342 41.5357 57.4789 43.7359C57.3356 44.4275 56.8434 44.7582 56.254 45.1324C56.0296 45.1577 55.7946 45.1867 55.5682 45.1746C55.0623 45.148 54.5832 44.938 54.2561 44.5784C53.9327 44.2223 53.942 43.5078 53.9134 43.0613C53.7078 39.8545 53.8816 36.5451 53.8847 33.3287C53.8866 31.5009 53.6169 28.0021 54.0293 26.3709C54.1768 25.7874 54.7414 25.4815 55.2346 25.1709Z" fill="white"/>
<path d="M50.0711 29.6499C50.6781 29.7542 51.2151 29.9667 51.5689 30.4579C52.1145 31.2158 52.1293 38.6404 51.8559 39.7C51.7065 40.2794 51.1685 40.5618 50.6585 40.8406C50.0745 40.808 49.3067 40.7597 48.9167 40.2878C48.3363 39.5866 48.3843 31.6956 48.7148 30.7061C48.9067 30.1311 49.5412 29.888 50.0711 29.6499Z" fill="white"/>
</svg>
