<svg width="107" height="31" viewBox="0 0 107 31" fill="none" xmlns="http://www.w3.org/2000/svg">
<path d="M15.8907 0.137947C16.3107 0.0896094 16.7975 0.183611 17.2022 0.306892C18.1179 0.585842 18.8622 1.18361 19.3038 2.03638C19.7625 2.9105 19.8505 3.93268 19.5479 4.87232C19.1636 6.03093 18.3397 6.61319 17.3106 7.14869L17.3223 10.5286C18.0578 10.7528 18.7736 11.0077 19.4414 11.3948C20.9763 12.2847 22.0267 13.7852 22.4668 15.4924C22.9321 17.2827 22.6669 19.1848 21.7305 20.7805C20.8716 22.227 19.502 23.2961 17.8623 23.7053C15.7206 24.2404 13.9043 23.6601 12.0635 22.5657C11.2498 23.4358 10.4459 24.3161 9.65238 25.2053C10.007 26.042 10.1238 26.9198 9.88871 27.8088C9.65878 28.6782 9.04971 29.4231 8.27055 29.8635C7.39742 30.3577 6.40259 30.448 5.44535 30.1741C4.49537 29.9022 3.69676 29.3132 3.23246 28.429C2.77564 27.5596 2.73699 26.5406 3.03324 25.6126C3.37036 24.5579 4.05734 23.9081 5.0225 23.426C6.06118 23.0198 6.91972 23.1536 7.93363 23.5188C8.77799 22.6303 9.57374 21.6974 10.4268 20.8167C9.48926 18.9781 9.18557 17.4119 9.67289 15.386C8.61147 14.8905 7.58749 14.313 6.52543 13.8167C5.95802 14.4073 5.26467 14.8124 4.45024 14.9495C3.47873 15.113 2.45386 14.848 1.65531 14.2776C0.864247 13.7044 0.343676 12.8311 0.21586 11.8626C0.0846693 10.9233 0.332123 9.88801 0.933634 9.14674C1.55385 8.38237 2.51645 7.92146 3.48832 7.81959C4.4434 7.72656 5.39698 8.01802 6.13676 8.62916C7.08228 9.42133 7.35509 10.4058 7.46977 11.5794C8.4764 12.1965 9.62886 12.6728 10.6778 13.2239C12.0425 11.6105 13.0402 11.1017 15.0293 10.4885L15.0313 7.13404C14.6752 6.99152 14.3191 6.81821 14.0088 6.5901C13.2241 6.00963 12.7094 5.13497 12.5821 4.16724C12.4644 3.2043 12.7359 2.23338 13.337 1.47193C13.9939 0.647945 14.8721 0.27274 15.8907 0.137947ZM20.2774 16.8245C20.075 14.5169 18.0469 12.8057 15.7383 12.9934C13.4093 13.1831 11.6799 15.2323 11.8838 17.5598C12.088 19.8883 14.1479 21.6056 16.4746 21.387C18.7807 21.1696 20.4797 19.1318 20.2774 16.8245Z" fill="white"/>
<path d="M98.916 11.584C99.6021 11.5849 100.288 11.5948 100.974 11.6123L100.97 15.2373C101.498 14.8264 102.074 14.5209 102.743 14.4209C103.647 14.284 104.569 14.5176 105.298 15.0693C106.178 15.7347 106.64 16.8553 106.773 17.9258C106.943 19.2835 106.624 20.5885 105.786 21.6709C105.23 22.2075 104.562 22.5829 103.793 22.709C102.664 22.8943 101.77 22.4995 100.89 21.8428L100.886 22.6347L98.917 22.6318L98.916 11.584ZM102.442 16.3349C101.831 16.5381 101.405 16.8289 101.107 17.4179C100.776 18.0714 100.753 18.8785 101.012 19.5596C101.209 20.0811 101.579 20.5324 102.094 20.7646C102.468 20.9338 102.821 20.9391 103.223 20.915C103.861 20.6736 104.291 20.3639 104.58 19.7246C104.882 19.057 104.877 18.2519 104.591 17.5801C104.371 17.0633 103.979 16.6469 103.451 16.4424C103.121 16.315 102.79 16.2981 102.442 16.3349Z" fill="white"/>
<path d="M39.9824 11.5633C41.1893 15.2831 42.734 18.9013 43.9111 22.6316L41.6865 22.6346C41.4258 21.8381 41.1742 20.9372 40.7764 20.201C40.5164 20.0898 40.2086 20.1271 39.9307 20.1306C38.8578 20.1413 37.7846 20.1373 36.7119 20.1189C36.3751 20.9409 36.1036 21.7868 35.8369 22.6336L33.5713 22.6316C34.7545 18.9183 36.1651 15.2523 37.4424 11.5681C38.2874 11.5865 39.137 11.5667 39.9824 11.5633ZM38.7148 14.3133C38.2464 15.6448 37.8096 16.9946 37.2969 18.3094L38.9258 18.3084L40.1914 18.2937C40.0133 17.7922 38.9806 14.5354 38.7148 14.3133Z" fill="white"/>
<path d="M86.8828 11.5869L89.0104 11.5997C88.9813 14.1642 89.004 16.7323 89.0033 19.2967C89.0026 20.3551 89.1102 21.512 88.9912 22.5563L88.8744 22.6363H86.8807L86.8765 17.9005C85.2828 17.8559 83.677 17.8956 82.0819 17.8977L82.0826 22.6384L79.9424 22.6342L79.9509 11.5899L82.0826 11.5948L82.0841 16.1107H86.8857L86.8828 11.5869Z" fill="white"/>
<path d="M90.2896 14.6482C90.9955 14.6684 91.7035 14.661 92.4093 14.6649C92.4008 15.7935 92.2224 18.9115 92.4957 19.8447C92.6033 20.2128 92.8185 20.5498 93.1669 20.729C93.6908 20.998 94.2232 20.8422 94.7436 20.6596C94.9744 20.4019 95.1726 20.1604 95.2866 19.8277C95.6604 18.7395 95.4608 15.9465 95.4551 14.6519C96.1277 14.6699 96.8024 14.6558 97.475 14.6523C97.4595 15.4276 97.4722 16.2056 97.4708 16.9816L97.4814 22.6328C96.8201 22.6427 96.1589 22.6377 95.4983 22.6179L95.4374 22.5464C95.4473 22.3786 95.4495 22.2419 95.4197 22.0749C94.8002 22.3432 94.2487 22.7503 93.5442 22.7645C92.7272 22.7807 91.8408 22.5273 91.2546 21.9396C90.81 21.495 90.5388 20.8968 90.3993 20.29C90.0991 18.9845 90.2761 16.093 90.2896 14.6482Z" fill="white"/>
<path d="M61.6956 14.4257C62.7505 14.3431 63.8501 14.4176 64.7025 15.1282C65.3 15.6258 65.4933 16.2233 65.5577 16.966L63.6511 16.9639C63.5414 16.7599 63.4316 16.5235 63.2596 16.3642C62.9849 16.1107 62.587 15.979 62.2153 15.9989C61.9264 16.0144 61.5576 16.1298 61.3777 16.3741C61.2687 16.5228 61.2085 16.6757 61.2503 16.8612C61.4669 17.8389 63.9527 17.7179 64.7442 18.2354C65.2476 18.5653 65.6342 19.1565 65.7461 19.7463C65.8579 20.3495 65.7142 20.9725 65.3503 21.466C64.7428 22.3035 63.8069 22.6044 62.8327 22.7538C61.9307 22.8083 60.885 22.5662 60.1628 22.0168C59.486 21.5014 59.2424 20.8691 59.1504 20.055C59.7925 20.0564 60.4354 20.05 61.0775 20.0373C61.1151 20.1583 61.1568 20.2751 61.2177 20.387C61.4974 20.9031 62.056 21.0178 62.5735 21.17C62.9155 21.0915 63.3785 21.0037 63.6214 20.7275C63.7679 20.5605 63.8189 20.2709 63.7573 20.0585C63.5201 19.2415 61.1384 19.1452 60.3122 18.6368C59.823 18.3352 59.4633 17.8963 59.3331 17.3299C59.2155 16.8166 59.2601 16.2396 59.549 15.79C60.0701 14.9761 60.7894 14.6418 61.6956 14.4257Z" fill="white"/>
<path d="M74.5262 14.4234C75.1266 14.3748 75.7149 14.3781 76.3004 14.5364C76.9758 14.7192 77.693 15.0965 78.0343 15.7362C78.1985 16.0428 78.3246 16.5943 78.2141 16.9348C77.6668 17.0531 76.9985 16.9731 76.4363 16.9667C76.3535 16.6884 76.2834 16.4739 76.0576 16.2813C75.7715 16.042 75.3998 15.9288 75.0288 15.9691C74.7386 15.9989 74.3655 16.1419 74.2033 16.4017C74.1063 16.5568 74.0667 16.7161 74.1276 16.8945C74.4787 17.9289 76.5836 17.6832 77.402 18.1505C77.9231 18.4485 78.3592 18.9724 78.5072 19.5587C78.6665 20.1881 78.561 20.8876 78.1978 21.4292C77.6555 22.2377 76.7939 22.5421 75.8848 22.7184C74.992 22.8289 73.9584 22.6391 73.2121 22.1244C72.4461 21.5963 72.216 20.9336 72.0439 20.0677L73.9555 20.0535C74.0716 20.3459 74.1771 20.5739 74.4249 20.7764C74.7549 21.0469 75.1464 21.1693 75.5719 21.1127C75.9018 21.0688 76.2268 20.9173 76.4243 20.6412C76.5532 20.4599 76.6176 20.2397 76.556 20.0196C76.3167 19.1693 74.2062 19.2224 73.3686 18.7714C72.8029 18.4662 72.3548 17.9593 72.1756 17.337C72.0234 16.8102 72.0871 16.2615 72.3654 15.7879C72.8277 15.0034 73.6759 14.6196 74.5262 14.4234Z" fill="white"/>
<path d="M50.9955 12.4556C51.6299 12.4775 52.2692 12.464 52.9043 12.4667C52.8972 13.1833 52.9078 13.9 52.9354 14.6161L54.8187 14.6173L54.8145 16.2587L53.0211 16.258C53.0218 17.2909 52.7854 19.9558 53.2597 20.7537C53.63 21.0454 54.3691 20.9364 54.8187 20.9314L54.8123 22.2915C54.8166 22.4317 54.8159 22.5025 54.7444 22.625C54.4937 22.7453 54.2367 22.7722 53.9599 22.7743C53.2314 22.7807 52.2253 22.649 51.7014 22.1032C50.6493 21.0079 50.9856 17.7851 50.9906 16.2566L49.7754 16.2587L49.779 14.6135L50.9892 14.6217L50.9955 12.4556Z" fill="white"/>
<path d="M67.367 12.4466L69.2403 12.4573C69.2262 13.1751 69.2559 13.8963 69.2693 14.6141L71.1831 14.6103L71.1802 16.2594L69.3791 16.258C69.401 17.2414 69.1603 19.9877 69.6056 20.7311C70.0843 21.0171 70.6839 20.9406 71.222 20.9392C71.2156 21.4129 71.2248 21.8879 71.227 22.3623L71.2043 22.5421C71.0188 22.7382 70.7335 22.7297 70.4807 22.7361C69.7111 22.7545 68.6484 22.6327 68.0905 22.0487C67.0491 20.9583 67.3733 17.7809 67.3825 16.2573L66.1011 16.258C66.0848 15.7121 66.0912 15.1645 66.0869 14.6186L67.3634 14.6252L67.367 12.4466Z" fill="white"/>
<path d="M26.9512 11.2198C27.0497 11.2149 27.1453 11.2135 27.2433 11.2276C27.5495 11.272 27.8512 11.4199 28.0199 11.6887C28.1988 11.974 28.2233 12.3538 28.2478 12.6842C28.3692 14.3196 28.279 16.0208 28.2786 17.6619C28.2782 19.0022 28.4267 20.8196 28.1779 22.1103C28.0996 22.5159 27.8305 22.7099 27.5084 22.9294C27.3857 22.9443 27.2573 22.9613 27.1335 22.9542C26.8571 22.9386 26.5952 22.8154 26.4164 22.6044C26.2396 22.3956 26.2447 21.9764 26.2291 21.7145C26.1167 19.8334 26.2117 17.892 26.2134 16.0052C26.2144 14.933 26.067 12.8806 26.2924 11.9237C26.3731 11.5814 26.6816 11.402 26.9512 11.2198Z" fill="white"/>
<path d="M48.6727 14.5874L48.9419 14.5843C49.261 14.941 49.1025 16.0711 49.0923 16.5391C48.4182 16.532 47.7805 16.5051 47.2524 16.995C46.2614 17.914 46.5955 21.2819 46.5857 22.6335C46.0545 22.6285 45.0197 22.8225 44.6138 22.4848L44.5927 22.1499C44.6024 19.645 44.5394 17.1423 44.5554 14.6378C45.1984 14.6578 45.8436 14.6442 46.487 14.6407L46.4644 15.7468C46.5838 15.5755 46.7023 15.3921 46.8408 15.2359C47.3283 14.686 47.9895 14.6362 48.6727 14.5874Z" fill="white"/>
<path d="M55.9891 14.6205L58.0097 14.6213L58.0147 22.6377L55.9707 22.6349L55.9891 14.6205Z" fill="white"/>
<path d="M24.1281 13.8465C24.4599 13.9076 24.7534 14.0323 24.9468 14.3205C25.245 14.765 25.253 19.1204 25.1036 19.742C25.0219 20.0818 24.7279 20.2475 24.4492 20.4111C24.1299 20.3919 23.7103 20.3636 23.4971 20.0868C23.1799 19.6755 23.2062 15.0465 23.3868 14.466C23.4917 14.1288 23.8385 13.9862 24.1281 13.8465Z" fill="white"/>
<path d="M56.8668 11.3177C57.4672 11.2472 58.0151 11.6668 58.1029 12.2648C58.1914 12.8628 57.7879 13.4225 57.1932 13.5283C56.7917 13.5995 56.3839 13.4471 56.1283 13.1304C55.872 12.8138 55.809 12.383 55.9627 12.0059C56.1163 11.6289 56.4625 11.3652 56.8668 11.3177Z" fill="white"/>
</svg>
