<svg width="64" height="64" viewBox="0 0 64 64" fill="none" xmlns="http://www.w3.org/2000/svg">
<path d="M35.0011 6.27938C35.7699 6.19694 36.661 6.35722 37.4015 6.56746C39.0767 7.04295 40.4373 8.06125 41.2452 9.51473C42.0848 11.0049 42.2463 12.7477 41.6925 14.3497C40.9894 16.325 39.4818 17.3176 37.5988 18.2305L37.6202 23.9932C38.9659 24.3756 40.2753 24.808 41.4972 25.4679C44.3059 26.9848 46.2269 29.5436 47.0324 32.4542C47.8836 35.5061 47.3989 38.7486 45.6857 41.4688C44.1142 43.9346 41.6084 45.7566 38.6085 46.4542C34.6898 47.3664 31.3663 46.3776 27.9982 44.5118C26.5093 45.9951 25.0388 47.4959 23.587 49.0118C24.236 50.4382 24.451 51.9346 24.0206 53.4503C23.5999 54.9323 22.4854 56.2025 21.0597 56.9532C19.4622 57.7956 17.6421 57.9486 15.8908 57.4815C14.1527 57.0181 12.6914 56.0153 11.8419 54.5079C11.0058 53.0258 10.9356 51.2884 11.4777 49.7061C12.0944 47.9081 13.3505 46.8004 15.1163 45.9786C17.017 45.2859 18.5882 45.5141 20.4435 46.1368C21.9883 44.6221 23.4433 43.0308 25.004 41.5294C23.2887 38.3951 22.7333 35.7253 23.6251 32.2716C21.6832 31.4268 19.8104 30.4439 17.8673 29.5977C16.8291 30.6047 15.5598 31.2948 14.0695 31.5284C12.292 31.8072 10.4182 31.3553 8.95716 30.3829C7.50963 29.4058 6.55718 27.9169 6.32337 26.2657C6.08341 24.6647 6.53553 22.9004 7.63587 21.6368C8.7707 20.3336 10.5323 19.5477 12.3107 19.3741C14.058 19.2155 15.8009 19.7122 17.1544 20.754C18.8849 22.1045 19.385 23.7825 19.5949 25.7833C21.4367 26.8355 23.5458 27.6466 25.465 28.586C27.9617 25.8359 29.7858 24.9682 33.4249 23.9229L33.4288 18.2052C32.7773 17.9622 32.1265 17.6663 31.5587 17.2774C30.123 16.2878 29.1802 14.7974 28.9474 13.1475C28.7321 11.506 29.2295 9.85183 30.3292 8.55379C31.5311 7.14899 33.1375 6.5092 35.0011 6.27938ZM43.0245 34.7237C42.6541 30.7901 38.9445 27.8734 34.7208 28.1934C30.4595 28.5166 27.2948 32.0097 27.6681 35.9776C28.0417 39.9472 31.8114 42.874 36.0685 42.5011C40.2875 42.1304 43.3947 38.657 43.0245 34.7237Z" fill="white"/>
<path d="M55.2346 25.1709C55.4148 25.1625 55.5897 25.1601 55.7689 25.1843C56.3292 25.2599 56.8812 25.5121 57.1898 25.9703C57.5171 26.4566 57.5619 27.1041 57.6068 27.6674C57.8289 30.4551 57.6639 33.3552 57.6631 36.1529C57.6625 38.4376 57.9342 41.5357 57.4789 43.7359C57.3356 44.4275 56.8434 44.7582 56.254 45.1324C56.0296 45.1577 55.7946 45.1867 55.5682 45.1746C55.0623 45.148 54.5832 44.938 54.2561 44.5784C53.9327 44.2223 53.942 43.5078 53.9134 43.0613C53.7078 39.8545 53.8816 36.5451 53.8847 33.3287C53.8866 31.5009 53.6169 28.0021 54.0293 26.3709C54.1768 25.7874 54.7414 25.4815 55.2346 25.1709Z" fill="white"/>
<path d="M50.0711 29.6499C50.6781 29.7542 51.2151 29.9667 51.5689 30.4579C52.1145 31.2158 52.1293 38.6404 51.8559 39.7C51.7065 40.2794 51.1685 40.5618 50.6585 40.8406C50.0745 40.808 49.3067 40.7597 48.9167 40.2878C48.3363 39.5866 48.3843 31.6956 48.7148 30.7061C48.9067 30.1311 49.5412 29.888 50.0711 29.6499Z" fill="white"/>
</svg>
