<svg width="84" height="36" viewBox="0 0 84 36" fill="none" xmlns="http://www.w3.org/2000/svg">
<g clip-path="url(#clip0_8278_69900)">
<g clip-path="url(#clip1_8278_69900)">
<path d="M21.8906 10.6384C22.3108 10.5901 22.7974 10.684 23.2021 10.8073C24.1178 11.0863 24.8621 11.6832 25.3037 12.5359C25.7625 13.4099 25.8504 14.4322 25.5478 15.3718C25.1635 16.5307 24.3389 17.1135 23.3096 17.6491L23.3213 21.029C24.0568 21.2533 24.7726 21.5072 25.4404 21.8943C26.9754 22.7841 28.0255 24.2847 28.4658 25.9919C28.9312 27.7823 28.6669 29.6852 27.7305 31.281C26.8715 32.7274 25.5019 33.7956 23.8623 34.2048C21.7203 34.7401 19.9035 34.1607 18.0625 33.0661C17.2488 33.9361 16.4448 34.8157 15.6514 35.7048C16.0061 36.5417 16.1239 37.4201 15.8887 38.3093C15.6587 39.1786 15.0496 39.9236 14.2705 40.364C13.3974 40.8581 12.4025 40.9475 11.4453 40.6736C10.4953 40.4017 9.69671 39.8137 9.23241 38.9294C8.7754 38.06 8.73689 37.0412 9.03319 36.113C9.37023 35.0583 10.0565 34.4086 11.0215 33.9265C12.0604 33.5201 12.9194 33.6539 13.9336 34.0193C14.7779 33.1307 15.5727 32.1969 16.4258 31.3161C15.4883 29.4776 15.1844 27.9114 15.6719 25.8855C14.6106 25.39 13.5873 24.8134 12.5254 24.3171C11.9579 24.9078 11.2638 25.3129 10.4492 25.4499C9.47789 25.6133 8.45367 25.3483 7.65526 24.7781C6.86407 24.2049 6.3436 23.3306 6.2158 22.362C6.08475 21.4229 6.33217 20.3883 6.93358 19.6472C7.55385 18.8827 8.51626 18.4209 9.48827 18.3191C10.4432 18.2261 11.396 18.5177 12.1357 19.1286C13.0816 19.9209 13.355 20.9061 13.4697 22.0798C14.4763 22.6969 15.6289 23.1724 16.6777 23.7234C18.0424 22.11 19.0401 21.6012 21.0293 20.988L21.0303 17.6335C20.6743 17.491 20.319 17.3176 20.0088 17.0896C19.224 16.509 18.7083 15.6346 18.581 14.6667C18.4635 13.7039 18.7359 12.7338 19.3369 11.9724C19.9938 11.1483 20.872 10.7732 21.8906 10.6384ZM26.2764 27.3249C26.074 25.0173 24.0459 23.3061 21.7373 23.4939C19.4082 23.6836 17.6787 25.7327 17.8828 28.0603C18.087 30.3888 20.1469 32.106 22.4736 31.8874C24.7796 31.6701 26.4786 29.6322 26.2764 27.3249Z" fill="#764191"/>
<path d="M45.9814 22.063C47.1884 25.783 48.733 29.4019 49.9102 33.1323L47.6855 33.1343C47.4248 32.3378 47.1733 31.437 46.7754 30.7007C46.5154 30.5896 46.2077 30.6268 45.9297 30.6304C44.8568 30.641 43.7837 30.638 42.7109 30.6196C42.3741 31.4415 42.1026 32.2866 41.8359 33.1333L39.5703 33.1313C40.7536 29.418 42.1641 25.7521 43.4414 22.0679C44.2864 22.0862 45.1361 22.0664 45.9814 22.063ZM44.7129 24.813C44.2445 26.1445 43.8077 27.4943 43.2949 28.8091L44.9238 28.8081L46.1895 28.7944C46.0117 28.294 44.9786 25.0349 44.7129 24.813Z" fill="#764191"/>
<path d="M67.6956 24.9258C68.7505 24.8432 69.8501 24.9177 70.7025 25.6283C71.3 26.1259 71.4933 26.7234 71.5577 27.4661L69.6511 27.464C69.5414 27.2601 69.4316 27.0236 69.2596 26.8643C68.9849 26.6108 68.587 26.4791 68.2153 26.499C67.9264 26.5145 67.5576 26.6299 67.3777 26.8742C67.2687 27.0229 67.2085 27.1758 67.2503 27.3613C67.4669 28.339 69.9527 28.218 70.7442 28.7355C71.2476 29.0654 71.6342 29.6566 71.7461 30.2464C71.8579 30.8496 71.7142 31.4726 71.3503 31.9661C70.7428 32.8036 69.8069 33.1045 68.8327 33.2539C67.9307 33.3085 66.885 33.0663 66.1628 32.5169C65.486 32.0015 65.2424 31.3693 65.1504 30.5551C65.7925 30.5565 66.4354 30.5501 67.0775 30.5374C67.1151 30.6584 67.1568 30.7752 67.2177 30.8871C67.4974 31.4032 68.056 31.5179 68.5735 31.6702C68.9155 31.5916 69.3785 31.5038 69.6214 31.2277C69.7679 31.0606 69.8189 30.771 69.7573 30.5586C69.5201 29.7416 67.1384 29.6453 66.3122 29.137C65.823 28.8353 65.4633 28.3964 65.3331 27.83C65.2155 27.3167 65.2601 26.7397 65.549 26.2901C66.0701 25.4762 66.7894 25.142 67.6956 24.9258Z" fill="#764191"/>
<path d="M80.5252 24.9236C81.1256 24.8749 81.7139 24.8782 82.2994 25.0366C82.9749 25.2194 83.692 25.5966 84.0333 26.2363C84.1976 26.5429 84.3236 27.0944 84.2131 27.435C83.6659 27.5532 82.9975 27.4732 82.4354 27.4668C82.3525 27.1886 82.2824 26.974 82.0566 26.7815C81.7706 26.5422 81.3989 26.4289 81.0279 26.4692C80.7376 26.499 80.3645 26.642 80.2023 26.9018C80.1054 27.0569 80.0657 27.2162 80.1266 27.3946C80.4778 28.429 82.5826 28.1833 83.4011 28.6506C83.9222 28.9486 84.3583 29.4726 84.5062 30.0588C84.6655 30.6882 84.5601 31.3877 84.1969 31.9293C83.6545 32.7378 82.7929 33.0423 81.8838 33.2186C80.9911 33.329 79.9574 33.1393 79.2112 32.6245C78.4451 32.0964 78.215 31.4337 78.043 30.5678L79.9546 30.5537C80.0707 30.8461 80.1762 31.074 80.424 31.2765C80.7539 31.547 81.1454 31.6695 81.5709 31.6128C81.9008 31.5689 82.2258 31.4174 82.4233 31.1413C82.5522 30.96 82.6166 30.7399 82.555 30.5197C82.3157 29.6694 80.2052 29.7225 79.3676 29.2715C78.8019 28.9663 78.3538 28.4594 78.1747 27.8371C78.0224 27.3103 78.0862 26.7616 78.3644 26.288C78.8267 25.5035 79.6749 25.1197 80.5252 24.9236Z" fill="#764191"/>
<path d="M56.9955 22.9556C57.6299 22.9774 58.2692 22.9639 58.9043 22.9667C58.8972 23.6832 58.9078 24.3999 58.9354 25.1161L60.8187 25.1172L60.8145 26.7586L59.0211 26.7579C59.0218 27.7909 58.7854 30.4558 59.2597 31.2537C59.63 31.5454 60.3691 31.4363 60.8187 31.4314L60.8123 32.7914C60.8166 32.9316 60.8159 33.0024 60.7444 33.1249C60.4937 33.2453 60.2367 33.2722 59.9599 33.2743C59.2314 33.2807 58.2253 33.149 57.7014 32.6031C56.6493 31.5078 56.9856 28.2851 56.9906 26.7565L55.7754 26.7586L55.779 25.1135L56.9892 25.1217L56.9955 22.9556Z" fill="#764191"/>
<path d="M73.366 22.9468L75.2393 22.9575C75.2252 23.6753 75.2549 24.3965 75.2684 25.1143L77.1821 25.1105L77.1792 26.7596L75.3781 26.7582C75.4001 27.7416 75.1593 30.4879 75.6047 31.2313C76.0833 31.5173 76.6829 31.4409 77.221 31.4394C77.2146 31.9131 77.2239 32.3882 77.226 32.8625L77.2033 33.0423C77.0178 33.2385 76.7325 33.23 76.4797 33.2363C75.7102 33.2547 74.6475 33.133 74.0896 32.5489C73.0481 31.4586 73.3724 28.2811 73.3816 26.7575L72.1001 26.7582C72.0838 26.2123 72.0902 25.6647 72.0859 25.1188L73.3625 25.1254L73.366 22.9468Z" fill="#764191"/>
<path d="M32.9502 21.7197C33.0487 21.7148 33.1443 21.7134 33.2423 21.7276C33.5485 21.772 33.8502 21.9199 34.0189 22.1887C34.1978 22.474 34.2223 22.8538 34.2468 23.1842C34.3682 24.8195 34.278 26.5208 34.2776 28.1619C34.2772 29.5021 34.4258 31.3196 34.1769 32.6102C34.0986 33.0159 33.8296 33.2099 33.5074 33.4294C33.3847 33.4442 33.2563 33.4612 33.1325 33.4542C32.8561 33.4386 32.5942 33.3154 32.4154 33.1044C32.2386 32.8956 32.2437 32.4764 32.2281 32.2145C32.1157 30.3333 32.2107 28.392 32.2124 26.5052C32.2134 25.433 32.066 23.3805 32.2915 22.4237C32.3721 22.0814 32.6806 21.902 32.9502 21.7197Z" fill="#764191"/>
<path d="M54.6737 25.0876L54.9428 25.0845C55.2619 25.4412 55.1035 26.5713 55.0933 27.0392C54.4191 27.0322 53.7815 27.0053 53.2534 27.4952C52.2624 28.4142 52.5965 31.7821 52.5866 33.1336C52.0554 33.1287 51.0206 33.3227 50.6148 32.985L50.5936 32.6501C50.6033 30.1452 50.5403 27.6425 50.5563 25.138C51.1994 25.158 51.8446 25.1444 52.488 25.1409L52.4654 26.247C52.5847 26.0757 52.7032 25.8923 52.8417 25.7361C53.3293 25.1861 53.9905 25.1364 54.6737 25.0876Z" fill="#764191"/>
<path d="M61.9891 25.1206L64.0097 25.1214L64.0147 33.1378L61.9707 33.1349L61.9891 25.1206Z" fill="#764191"/>
<path d="M30.1281 24.3467C30.4599 24.4079 30.7534 24.5325 30.9468 24.8207C31.245 25.2652 31.253 29.6206 31.1036 30.2422C31.0219 30.582 30.7279 30.7477 30.4492 30.9113C30.1299 30.8921 29.7103 30.8638 29.4971 30.587C29.1799 30.1757 29.2062 25.5467 29.3868 24.9662C29.4917 24.629 29.8385 24.4864 30.1281 24.3467Z" fill="#764191"/>
<path d="M62.8658 21.8178C63.4662 21.7472 64.0142 22.1668 64.102 22.7648C64.1905 23.3629 63.7869 23.9226 63.1922 24.0284C62.7908 24.0996 62.383 23.9472 62.1274 23.6305C61.8711 23.3139 61.8081 22.883 61.9617 22.506C62.1153 22.129 62.4615 21.8653 62.8658 21.8178Z" fill="#764191"/>
</g>
</g>
<defs>
<clipPath id="clip0_8278_69900">
<rect width="84" height="36" fill="white"/>
</clipPath>
<clipPath id="clip1_8278_69900">
<rect width="84" height="36" fill="white"/>
</clipPath>
</defs>
</svg>
